<?xml version="1.0" encoding="UTF-8" standalone="no"?>
<!DOCTYPE svg PUBLIC "-//W3C//DTD SVG 1.1//EN" "http://www.w3.org/Graphics/SVG/1.1/DTD/svg11.dtd">
<svg width="100%" height="100%" viewBox="0 0 95 107" version="1.1" xmlns="http://www.w3.org/2000/svg" xmlns:xlink="http://www.w3.org/1999/xlink" xml:space="preserve" xmlns:serif="http://www.serif.com/" style="fill-rule:evenodd;clip-rule:evenodd;stroke-linejoin:round;stroke-miterlimit:2;">
    <g transform="matrix(1,0,0,1,-1507.674478,-2049.659933)">
        <g id="icon" transform="matrix(1,0,0,1,-629.266711,1088.9877)">
            <g transform="matrix(0.319711,0,0,0.319711,1615.659293,642.986363)">
                <path d="M1793.296,997.612L1911.935,1066.108C1921.047,1071.369 1926.661,1081.092 1926.661,1091.614L1926.661,1228.606C1926.661,1239.129 1921.047,1248.851 1911.935,1254.112L1793.296,1322.609C1784.184,1327.87 1772.957,1327.87 1763.844,1322.609L1645.205,1254.112C1636.093,1248.851 1630.48,1239.129 1630.48,1228.606L1630.48,1091.614C1630.48,1081.092 1636.093,1071.369 1645.205,1066.108L1763.844,997.612C1772.957,992.351 1784.184,992.351 1793.296,997.612ZM1778.57,1070.892C1827.811,1070.892 1867.788,1110.869 1867.788,1160.11C1867.788,1209.351 1827.811,1249.329 1778.57,1249.329C1729.329,1249.329 1689.352,1209.351 1689.352,1160.11C1689.352,1110.869 1729.329,1070.892 1778.57,1070.892Z" style="fill:white;"/>
            </g>
            <g transform="matrix(0.318317,0,0,0.318317,1618.13832,644.603361)">
                <circle cx="1778.57" cy="1160.11" r="57.803" style="fill:rgb(247,148,28);"/>
            </g>
        </g>
    </g>
</svg>
